<svg xmlns="http://www.w3.org/2000/svg" xmlns:xlink="http://www.w3.org/1999/xlink" width="500" zoomAndPan="magnify" viewBox="0 0 375 374.999991" height="500" preserveAspectRatio="xMidYMid meet" version="1.0"><defs><clipPath id="5136a20587"><path d="M 71 0.46875 L 241 0.46875 L 241 117 L 71 117 Z M 71 0.46875 " clip-rule="nonzero"/></clipPath><clipPath id="9a966227bd"><path d="M 0 29 L 375 29 L 375 374.71875 L 0 374.71875 Z M 0 29 " clip-rule="nonzero"/></clipPath></defs><g clip-path="url(#5136a20587)"><path fill="#2b2120" d="M 187.808594 31.457031 C 187.351562 31.402344 186.957031 31.539062 186.625 31.867188 C 162.671875 55.847656 138.609375 79.886719 114.4375 103.988281 C 112.609375 105.816406 110.351562 107.148438 107.664062 107.992188 C 97.007812 111.347656 85.195312 114.214844 72.238281 116.585938 C 71.539062 116.707031 71.441406 116.519531 71.941406 116.019531 L 187.410156 0.570312 C 187.484375 0.496094 187.5625 0.496094 187.648438 0.570312 L 240.28125 53.175781 C 240.578125 53.472656 240.535156 53.714844 240.15625 53.90625 C 237.464844 55.277344 234.886719 56.691406 232.429688 58.148438 C 230.957031 59.019531 229.375 59.460938 227.683594 59.476562 C 224.210938 59.5 220.875 59.625 217.679688 59.851562 C 216.816406 59.914062 216.082031 59.636719 215.472656 59.023438 C 206.332031 49.8125 197.335938 40.765625 188.488281 31.890625 C 188.230469 31.632812 188.003906 31.488281 187.808594 31.457031 Z M 187.808594 31.457031 " fill-opacity="1" fill-rule="nonzero"/></g><g clip-path="url(#9a966227bd)"><path fill="#2b2120" d="M 166.023438 173.21875 C 166.511719 173.386719 166.996094 173.34375 167.480469 173.09375 C 180.03125 166.773438 192.519531 161.25 204.945312 156.527344 C 206.570312 155.902344 206.800781 156.238281 205.640625 157.527344 C 201.9375 161.628906 198.417969 166.125 195.078125 171.011719 C 180.277344 192.644531 168.851562 215.484375 160.800781 239.539062 C 160.019531 241.875 160.378906 242.066406 161.882812 240.109375 C 167.722656 232.523438 174.789062 224.984375 182.027344 219.253906 C 183.277344 218.269531 183.753906 218.554688 183.460938 220.117188 C 180.835938 233.976562 184.894531 244.898438 195.636719 252.878906 C 198.171875 254.769531 200.640625 256.371094 203.046875 257.691406 C 203.539062 257.964844 203.566406 258.277344 203.125 258.632812 C 195.871094 264.417969 190.097656 271.519531 185.804688 279.933594 C 179.589844 292.101562 175.820312 305.445312 174.492188 319.964844 C 174.347656 321.515625 174.75 321.675781 175.699219 320.441406 C 182.535156 311.539062 190.429688 302.320312 199.382812 292.785156 C 200.921875 291.144531 201.363281 291.402344 200.703125 293.558594 C 192.652344 319.941406 188.210938 346.984375 187.375 374.683594 C 187.375 374.710938 187.363281 374.730469 187.335938 374.738281 C 187.308594 374.746094 187.289062 374.742188 187.273438 374.71875 L 0.65625 188.253906 C 0.304688 187.90625 0.304688 187.554688 0.65625 187.207031 L 34.957031 152.953125 C 35.359375 152.5625 35.777344 152.546875 36.207031 152.910156 C 40.722656 156.722656 45.925781 160.652344 51.820312 164.703125 C 52.597656 165.234375 52.648438 165.828125 51.980469 166.488281 L 31.371094 187.003906 C 31.277344 187.09375 31.207031 187.199219 31.15625 187.320312 C 31.105469 187.441406 31.078125 187.566406 31.078125 187.699219 C 31.078125 187.828125 31.105469 187.957031 31.15625 188.078125 C 31.207031 188.199219 31.277344 188.308594 31.371094 188.402344 L 72.488281 229.636719 C 73.027344 230.175781 73.601562 230.21875 74.207031 229.773438 L 94.726562 214.671875 C 95.203125 214.3125 95.171875 214.015625 94.625 213.773438 C 94.519531 213.726562 94.402344 213.707031 94.28125 213.714844 C 84.804688 214.328125 75.984375 215.28125 67.8125 216.570312 C 67.074219 216.683594 66.960938 216.46875 67.46875 215.921875 C 77.417969 205.277344 87.375 195.691406 97.34375 187.160156 C 102.609375 182.652344 108.007812 178.128906 113.539062 173.59375 C 114.242188 173.011719 114.140625 172.679688 113.230469 172.605469 C 107.488281 172.105469 102.167969 171.527344 97.277344 170.878906 C 88.945312 169.769531 80.132812 166.484375 70.839844 161.015625 C 63.046875 156.4375 56.019531 151.628906 49.75 146.585938 C 47.359375 144.667969 44.9375 142.761719 42.480469 140.867188 C 42.390625 140.800781 42.324219 140.71875 42.273438 140.625 C 42.222656 140.527344 42.195312 140.425781 42.1875 140.316406 C 42.183594 140.207031 42.203125 140.105469 42.242188 140.003906 C 42.28125 139.902344 42.34375 139.816406 42.421875 139.742188 C 42.878906 139.316406 43.402344 138.984375 43.992188 138.738281 C 53.832031 134.609375 63.847656 131.636719 74.035156 129.824219 C 88.230469 127.300781 102.148438 123.726562 115.792969 119.101562 C 117.523438 118.519531 119.867188 117.121094 121.332031 115.960938 C 139.496094 101.574219 153.996094 90.195312 164.832031 81.835938 C 167.113281 80.070312 169.636719 78.351562 172.398438 76.683594 C 173.894531 75.78125 175.558594 75.28125 177.394531 75.183594 C 195.226562 74.203125 213.128906 73.328125 231.292969 72.488281 C 232.847656 72.410156 234.246094 72.042969 235.492188 71.382812 C 262.8125 56.765625 289.890625 42.945312 316.726562 29.921875 C 317.097656 29.738281 317.367188 29.839844 317.53125 30.21875 C 322.90625 42.195312 327.257812 55.035156 330.597656 68.734375 C 332.019531 74.546875 332.78125 81.414062 330.335938 86.988281 C 328.546875 91.050781 326.476562 94.953125 324.132812 98.699219 C 323.945312 99.003906 323.84375 99.332031 323.828125 99.691406 C 323.8125 100.046875 323.882812 100.382812 324.042969 100.699219 C 326.433594 105.441406 328.355469 110.46875 328.402344 115.90625 C 328.425781 119.226562 328.378906 122.476562 329.515625 125.695312 C 330.710938 129.074219 333.191406 137.933594 331.40625 140.617188 C 331.070312 141.125 330.667969 141.570312 330.1875 141.957031 C 326.863281 144.664062 323.398438 147.535156 319.785156 150.566406 C 296.492188 170.113281 282.5625 196.226562 282.765625 227.144531 C 282.804688 233.25 283.226562 239.71875 284.027344 246.558594 C 284.058594 246.839844 284.210938 247.03125 284.480469 247.125 C 284.75 247.222656 284.988281 247.167969 285.191406 246.964844 L 343.8125 188.332031 C 343.972656 188.167969 344.054688 187.972656 344.054688 187.742188 C 344.054688 187.511719 343.972656 187.3125 343.8125 187.148438 L 323.335938 166.761719 C 322.722656 166.140625 322.75 165.546875 323.417969 164.988281 L 338.542969 152.214844 C 338.828125 151.964844 339.105469 151.976562 339.371094 152.25 L 374.730469 187.503906 C 374.8125 187.582031 374.851562 187.675781 374.851562 187.785156 C 374.851562 187.898438 374.8125 187.992188 374.730469 188.070312 L 254.257812 308.441406 C 253.832031 308.875 253.53125 308.804688 253.347656 308.226562 C 245.117188 282.480469 242.722656 255.960938 246.167969 228.667969 C 246.242188 228.085938 246.4375 228.042969 246.746094 228.542969 C 252.453125 237.582031 259.03125 245.660156 266.480469 252.777344 C 266.664062 252.953125 266.882812 253.035156 267.140625 253.027344 C 267.320312 253.023438 267.46875 252.953125 267.585938 252.8125 C 267.699219 252.671875 267.742188 252.511719 267.710938 252.335938 C 263.964844 231 264 207.109375 271.339844 187.105469 C 275.179688 176.636719 281.171875 167.5625 289.320312 159.890625 C 289.699219 159.542969 289.988281 159.125 290.1875 158.640625 C 290.453125 157.980469 290.257812 157.792969 289.605469 158.070312 C 270.875 166.09375 253.695312 176.15625 238.074219 188.265625 C 232.347656 192.699219 227.488281 197.453125 223.496094 202.523438 C 221.886719 204.570312 220.597656 206.820312 219.628906 209.269531 C 219.125 210.542969 218.6875 210.519531 218.308594 209.199219 C 214.363281 195.464844 216.8125 183.757812 225.660156 174.082031 C 231.113281 168.125 238.476562 162.992188 247.75 158.6875 C 256.292969 154.722656 265.550781 151.382812 275.527344 148.667969 C 288.378906 145.171875 303.234375 141.660156 320.09375 138.125 C 320.304688 138.082031 320.5 138 320.679688 137.882812 C 320.859375 137.761719 321.011719 137.617188 321.136719 137.441406 C 321.257812 137.261719 321.347656 137.070312 321.394531 136.859375 C 321.445312 136.652344 321.457031 136.441406 321.425781 136.226562 L 319.933594 125.820312 C 319.84375 125.175781 319.472656 124.863281 318.820312 124.878906 C 310.695312 125.128906 302.371094 125.566406 293.851562 126.195312 C 291.945312 126.339844 289.988281 126.699219 287.976562 127.277344 C 278.738281 129.9375 269.753906 133.398438 261.027344 137.660156 C 259.785156 138.273438 259.15625 137.886719 259.140625 136.5 C 259.101562 130.59375 260.640625 125.554688 263.761719 121.386719 C 267.304688 116.648438 271.144531 112.503906 275.277344 108.957031 C 285.132812 100.507812 295.363281 92.148438 303.078125 81.878906 C 306.5 77.332031 308.933594 72.546875 310.375 67.527344 C 310.511719 67.058594 310.335938 66.832031 309.851562 66.847656 C 302.683594 67.074219 298.890625 66.175781 294.273438 60.648438 C 293.945312 60.261719 293.558594 60.191406 293.109375 60.433594 C 277.488281 68.765625 261.519531 77.132812 245.199219 85.542969 C 240.09375 88.164062 236.171875 90.769531 233.429688 93.355469 C 229.988281 96.597656 226.6875 100.617188 223.53125 105.410156 C 221.625 108.296875 219.234375 110.035156 216.359375 110.617188 C 208.257812 112.265625 199.484375 112.324219 191.074219 112.1875 C 190.003906 112.171875 189.933594 111.90625 190.867188 111.390625 C 202.292969 105.144531 213.691406 98.480469 225.054688 91.398438 C 227.050781 90.15625 226.871094 89.585938 224.519531 89.691406 C 218.253906 89.980469 211.839844 90.296875 205.277344 90.636719 C 204.519531 90.683594 203.859375 90.898438 203.308594 91.285156 C 187.707031 102.390625 176.515625 116.859375 169.722656 134.691406 C 169.699219 134.761719 169.691406 134.828125 169.691406 134.894531 C 169.683594 135.601562 169.9375 135.851562 170.453125 135.648438 C 181.332031 131.339844 192.351562 127.75 203.511719 124.878906 C 204.125 124.71875 204.21875 124.875 203.785156 125.34375 C 189.902344 140.113281 177.28125 155.972656 165.921875 172.925781 C 165.886719 172.980469 165.882812 173.039062 165.902344 173.101562 C 165.925781 173.160156 165.964844 173.203125 166.023438 173.21875 Z M 314.746094 90.328125 C 320.695312 82.4375 319.503906 75.707031 317.453125 66.746094 C 317.265625 65.902344 316.742188 65.554688 315.894531 65.699219 L 313.070312 66.164062 C 312.109375 66.324219 311.78125 66.871094 312.09375 67.800781 C 314.429688 74.761719 314.988281 81.847656 313.765625 89.054688 C 313.691406 89.503906 313.769531 89.917969 314.003906 90.296875 C 314.046875 90.355469 314.097656 90.40625 314.160156 90.441406 C 314.222656 90.480469 314.292969 90.5 314.367188 90.503906 C 314.441406 90.507812 314.511719 90.492188 314.578125 90.460938 C 314.644531 90.429688 314.699219 90.386719 314.746094 90.328125 Z M 305.824219 120.285156 C 305.761719 120.453125 305.746094 120.628906 305.769531 120.804688 C 305.792969 120.984375 305.851562 121.148438 305.953125 121.296875 C 306.054688 121.445312 306.183594 121.566406 306.339844 121.652344 C 306.5 121.738281 306.667969 121.789062 306.847656 121.796875 L 312.945312 122.023438 C 313.128906 122.03125 313.300781 121.996094 313.46875 121.917969 C 313.632812 121.84375 313.769531 121.734375 313.882812 121.589844 C 313.996094 121.449219 314.070312 121.285156 314.105469 121.109375 C 314.140625 120.929688 314.132812 120.753906 314.085938 120.578125 L 311.398438 110.808594 C 311.335938 110.570312 311.203125 110.371094 311.007812 110.214844 C 310.8125 110.058594 310.589844 109.976562 310.339844 109.96875 C 310.09375 109.960938 309.863281 110.027344 309.65625 110.167969 C 309.453125 110.308594 309.308594 110.496094 309.226562 110.730469 Z M 287.054688 122.933594 C 287.054688 123.042969 287.074219 123.148438 287.117188 123.25 C 287.164062 123.351562 287.226562 123.441406 287.3125 123.511719 C 287.394531 123.585938 287.488281 123.636719 287.597656 123.667969 C 287.703125 123.695312 287.8125 123.703125 287.921875 123.683594 L 294.566406 122.523438 C 294.691406 122.503906 294.804688 122.453125 294.90625 122.371094 C 295.003906 122.292969 295.078125 122.195312 295.128906 122.074219 C 295.175781 121.957031 295.195312 121.835938 295.179688 121.710938 C 295.164062 121.582031 295.121094 121.46875 295.046875 121.363281 L 288.671875 112.617188 C 288.578125 112.492188 288.457031 112.40625 288.304688 112.359375 C 288.15625 112.308594 288.007812 112.308594 287.855469 112.355469 C 287.707031 112.402344 287.585938 112.492188 287.488281 112.617188 C 287.394531 112.742188 287.34375 112.882812 287.339844 113.039062 Z M 106.3125 145.871094 C 105.46875 145.597656 105.472656 145.328125 106.324219 145.0625 C 112.058594 143.25 117.96875 141.546875 124.054688 139.957031 C 126.464844 139.328125 128.644531 138.332031 130.585938 136.964844 C 139.203125 130.917969 147.042969 123.308594 153.9375 115.050781 C 154.757812 114.074219 154.601562 113.882812 153.472656 114.484375 C 145.742188 118.539062 138.136719 122.5 130.65625 126.367188 C 125.214844 129.1875 119.445312 132.121094 113.402344 133.351562 C 99.246094 136.261719 85.359375 138.320312 71.089844 140.683594 C 69.132812 141.011719 69.054688 141.589844 70.863281 142.425781 C 84.734375 148.871094 100.292969 155.773438 115.335938 159.6875 C 118.597656 160.527344 121.945312 160.65625 125.375 160.074219 C 134.105469 158.59375 142.683594 155.898438 151.105469 151.988281 C 151.203125 151.945312 151.261719 151.875 151.289062 151.773438 C 151.3125 151.671875 151.292969 151.582031 151.230469 151.5 C 151.09375 151.316406 150.902344 151.21875 150.660156 151.203125 C 142.882812 150.871094 135.269531 150.683594 127.820312 150.644531 C 120.128906 150.601562 113.367188 148.210938 106.3125 145.871094 Z M 106.3125 145.871094 " fill-opacity="1" fill-rule="nonzero"/></g></svg>